<?xml version="1.0" encoding="UTF-8" standalone="no"?><svg xmlns="http://www.w3.org/2000/svg" xmlns:xlink="http://www.w3.org/1999/xlink" clip-rule="evenodd" stroke-miterlimit="4.00" viewBox="0 0 352 136"><desc>SVG generated by Keynote</desc><defs></defs><g transform="matrix(1.00, 0.00, -0.00, -1.00, 0.0, 136.0)"><text xml:space="preserve" font-family="Helvetica-Light" font-size="29.0" fill="#000000" transform="matrix(1.00, 0.00, -0.00, -1.00, 2.0, 113.0)">A</text><text xml:space="preserve" font-family="Helvetica-Light" font-size="29.0" fill="#000000" transform="matrix(1.00, 0.00, -0.00, -1.00, 21.3, 113.0)">d</text><text xml:space="preserve" font-family="Helvetica-Light" font-size="29.0" fill="#000000" transform="matrix(1.00, 0.00, -0.00, -1.00, 39.1, 113.0)">d</text><text xml:space="preserve" font-family="Helvetica-Light" font-size="29.0" fill="#000000" transform="matrix(1.00, 0.00, -0.00, -1.00, 56.8, 113.0)">i</text><text xml:space="preserve" font-family="Helvetica-Light" font-size="29.0" fill="#000000" transform="matrix(1.00, 0.00, -0.00, -1.00, 63.2, 113.0)">t</text><text xml:space="preserve" font-family="Helvetica-Light" font-size="29.0" fill="#000000" transform="matrix(1.00, 0.00, -0.00, -1.00, 71.3, 113.0)">i</text><text xml:space="preserve" font-family="Helvetica-Light" font-size="29.0" fill="#000000" transform="matrix(1.00, 0.00, -0.00, -1.00, 77.7, 113.0)">o</text><text xml:space="preserve" font-family="Helvetica-Light" font-size="29.0" fill="#000000" transform="matrix(1.00, 0.00, -0.00, -1.00, 93.8, 113.0)">n</text><text xml:space="preserve" font-family="Helvetica-Light" font-size="29.0" fill="#000000" transform="matrix(1.00, 0.00, -0.00, -1.00, 110.0, 113.0)">a</text><text xml:space="preserve" font-family="Helvetica-Light" font-size="29.0" fill="#000000" transform="matrix(1.00, 0.00, -0.00, -1.00, 126.1, 113.0)">l</text><text xml:space="preserve" font-family="Helvetica-Light" font-size="29.0" fill="#000000" transform="matrix(1.00, 0.00, -0.00, -1.00, 132.5, 113.0)"> </text><text xml:space="preserve" font-family="Helvetica-Light" font-size="29.0" fill="#000000" transform="matrix(1.00, 0.00, -0.00, -1.00, 140.6, 113.0)">i</text><text xml:space="preserve" font-family="Helvetica-Light" font-size="29.0" fill="#000000" transform="matrix(1.00, 0.00, -0.00, -1.00, 147.0, 113.0)">n</text><text xml:space="preserve" font-family="Helvetica-Light" font-size="29.0" fill="#000000" transform="matrix(1.00, 0.00, -0.00, -1.00, 163.2, 113.0)">f</text><text xml:space="preserve" font-family="Helvetica-Light" font-size="29.0" fill="#000000" transform="matrix(1.00, 0.00, -0.00, -1.00, 171.2, 113.0)">o</text><text xml:space="preserve" font-family="Helvetica-Light" font-size="29.0" fill="#000000" transform="matrix(1.00, 0.00, -0.00, -1.00, 187.3, 113.0)">r</text><text xml:space="preserve" font-family="Helvetica-Light" font-size="29.0" fill="#000000" transform="matrix(1.00, 0.00, -0.00, -1.00, 197.5, 113.0)">m</text><text xml:space="preserve" font-family="Helvetica-Light" font-size="29.0" fill="#000000" transform="matrix(1.00, 0.00, -0.00, -1.00, 221.7, 113.0)">a</text><text xml:space="preserve" font-family="Helvetica-Light" font-size="29.0" fill="#000000" transform="matrix(1.00, 0.00, -0.00, -1.00, 237.8, 113.0)">t</text><text xml:space="preserve" font-family="Helvetica-Light" font-size="29.0" fill="#000000" transform="matrix(1.00, 0.00, -0.00, -1.00, 245.9, 113.0)">i</text><text xml:space="preserve" font-family="Helvetica-Light" font-size="29.0" fill="#000000" transform="matrix(1.00, 0.00, -0.00, -1.00, 252.3, 113.0)">o</text><text xml:space="preserve" font-family="Helvetica-Light" font-size="29.0" fill="#000000" transform="matrix(1.00, 0.00, -0.00, -1.00, 268.4, 113.0)">n</text><text xml:space="preserve" font-family="Helvetica-Light" font-size="29.0" fill="#000000" transform="matrix(1.00, 0.00, -0.00, -1.00, 284.5, 113.0)"> </text><text xml:space="preserve" font-family="Helvetica-Light" font-size="29.0" fill="#000000" transform="matrix(1.00, 0.00, -0.00, -1.00, 2.0, 78.0)">b</text><text xml:space="preserve" font-family="Helvetica-Light" font-size="29.0" fill="#000000" transform="matrix(1.00, 0.00, -0.00, -1.00, 19.7, 78.0)">l</text><text xml:space="preserve" font-family="Helvetica-Light" font-size="29.0" fill="#000000" transform="matrix(1.00, 0.00, -0.00, -1.00, 26.2, 78.0)">o</text><text xml:space="preserve" font-family="Helvetica-Light" font-size="29.0" fill="#000000" transform="matrix(1.00, 0.00, -0.00, -1.00, 42.3, 78.0)">c</text><text xml:space="preserve" font-family="Helvetica-Light" font-size="29.0" fill="#000000" transform="matrix(1.00, 0.00, -0.00, -1.00, 58.4, 78.0)">k</text><text xml:space="preserve" font-family="Helvetica-Light" font-size="29.0" fill="#000000" transform="matrix(1.00, 0.00, -0.00, -1.00, 72.9, 78.0)">s</text><text xml:space="preserve" font-family="Helvetica-Light" font-size="29.0" fill="#000000" transform="matrix(1.00, 0.00, -0.00, -1.00, 87.4, 78.0)">,</text><text xml:space="preserve" font-family="Helvetica-Light" font-size="29.0" fill="#000000" transform="matrix(1.00, 0.00, -0.00, -1.00, 95.5, 78.0)"> </text><text xml:space="preserve" font-family="Helvetica-Light" font-size="29.0" fill="#000000" transform="matrix(1.00, 0.00, -0.00, -1.00, 103.5, 78.0)">c</text><text xml:space="preserve" font-family="Helvetica-Light" font-size="29.0" fill="#000000" transform="matrix(1.00, 0.00, -0.00, -1.00, 119.7, 78.0)">o</text><text xml:space="preserve" font-family="Helvetica-Light" font-size="29.0" fill="#000000" transform="matrix(1.00, 0.00, -0.00, -1.00, 135.8, 78.0)">m</text><text xml:space="preserve" font-family="Helvetica-Light" font-size="29.0" fill="#000000" transform="matrix(1.00, 0.00, -0.00, -1.00, 159.9, 78.0)">m</text><text xml:space="preserve" font-family="Helvetica-Light" font-size="29.0" fill="#000000" transform="matrix(1.00, 0.00, -0.00, -1.00, 184.1, 78.0)">e</text><text xml:space="preserve" font-family="Helvetica-Light" font-size="29.0" fill="#000000" transform="matrix(1.00, 0.00, -0.00, -1.00, 200.2, 78.0)">n</text><text xml:space="preserve" font-family="Helvetica-Light" font-size="29.0" fill="#000000" transform="matrix(1.00, 0.00, -0.00, -1.00, 216.3, 78.0)">t</text><text xml:space="preserve" font-family="Helvetica-Light" font-size="29.0" fill="#000000" transform="matrix(1.00, 0.00, -0.00, -1.00, 224.4, 78.0)">s</text><text xml:space="preserve" font-family="Helvetica-Light" font-size="29.0" fill="#000000" transform="matrix(1.00, 0.00, -0.00, -1.00, 238.9, 78.0)"> </text><text xml:space="preserve" font-family="Helvetica-Light" font-size="29.0" fill="#000000" transform="matrix(1.00, 0.00, -0.00, -1.00, 247.0, 78.0)">o</text><text xml:space="preserve" font-family="Helvetica-Light" font-size="29.0" fill="#000000" transform="matrix(1.00, 0.00, -0.00, -1.00, 263.1, 78.0)">r</text><text xml:space="preserve" font-family="Helvetica-Light" font-size="29.0" fill="#000000" transform="matrix(1.00, 0.00, -0.00, -1.00, 272.7, 78.0)"> </text><text xml:space="preserve" font-family="Helvetica-Light" font-size="29.0" fill="#000000" transform="matrix(1.00, 0.00, -0.00, -1.00, 2.0, 43.0)">g</text><text xml:space="preserve" font-family="Helvetica-Light" font-size="29.0" fill="#000000" transform="matrix(1.00, 0.00, -0.00, -1.00, 19.7, 43.0)">l</text><text xml:space="preserve" font-family="Helvetica-Light" font-size="29.0" fill="#000000" transform="matrix(1.00, 0.00, -0.00, -1.00, 26.2, 43.0)">o</text><text xml:space="preserve" font-family="Helvetica-Light" font-size="29.0" fill="#000000" transform="matrix(1.00, 0.00, -0.00, -1.00, 42.3, 43.0)">s</text><text xml:space="preserve" font-family="Helvetica-Light" font-size="29.0" fill="#000000" transform="matrix(1.00, 0.00, -0.00, -1.00, 56.8, 43.0)">s</text><text xml:space="preserve" font-family="Helvetica-Light" font-size="29.0" fill="#000000" transform="matrix(1.00, 0.00, -0.00, -1.00, 71.3, 43.0)">a</text><text xml:space="preserve" font-family="Helvetica-Light" font-size="29.0" fill="#000000" transform="matrix(1.00, 0.00, -0.00, -1.00, 87.4, 43.0)">r</text><text xml:space="preserve" font-family="Helvetica-Light" font-size="29.0" fill="#000000" transform="matrix(1.00, 0.00, -0.00, -1.00, 97.6, 43.0)">y</text><text xml:space="preserve" font-family="Helvetica-Light" font-size="29.0" fill="#000000" transform="matrix(1.00, 0.00, -0.00, -1.00, 112.1, 43.0)"> </text><text xml:space="preserve" font-family="Helvetica-Light" font-size="29.0" fill="#000000" transform="matrix(1.00, 0.00, -0.00, -1.00, 120.1, 43.0)">d</text><text xml:space="preserve" font-family="Helvetica-Light" font-size="29.0" fill="#000000" transform="matrix(1.00, 0.00, -0.00, -1.00, 137.9, 43.0)">e</text><text xml:space="preserve" font-family="Helvetica-Light" font-size="29.0" fill="#000000" transform="matrix(1.00, 0.00, -0.00, -1.00, 154.0, 43.0)">ï¬</text><text xml:space="preserve" font-family="Helvetica-Light" font-size="29.0" fill="#000000" transform="matrix(1.00, 0.00, -0.00, -1.00, 168.5, 43.0)">n</text><text xml:space="preserve" font-family="Helvetica-Light" font-size="29.0" fill="#000000" transform="matrix(1.00, 0.00, -0.00, -1.00, 184.6, 43.0)">i</text><text xml:space="preserve" font-family="Helvetica-Light" font-size="29.0" fill="#000000" transform="matrix(1.00, 0.00, -0.00, -1.00, 191.1, 43.0)">t</text><text xml:space="preserve" font-family="Helvetica-Light" font-size="29.0" fill="#000000" transform="matrix(1.00, 0.00, -0.00, -1.00, 199.1, 43.0)">i</text><text xml:space="preserve" font-family="Helvetica-Light" font-size="29.0" fill="#000000" transform="matrix(1.00, 0.00, -0.00, -1.00, 205.6, 43.0)">o</text><text xml:space="preserve" font-family="Helvetica-Light" font-size="29.0" fill="#000000" transform="matrix(1.00, 0.00, -0.00, -1.00, 221.7, 43.0)">n</text><text xml:space="preserve" font-family="Helvetica-Light" font-size="29.0" fill="#000000" transform="matrix(1.00, 0.00, -0.00, -1.00, 237.8, 43.0)">s</text><text xml:space="preserve" font-family="Helvetica-Light" font-size="29.0" fill="#000000" transform="matrix(1.00, 0.00, -0.00, -1.00, 252.3, 43.0)"> </text><text xml:space="preserve" font-family="Helvetica-Light" font-size="29.0" fill="#000000" transform="matrix(1.00, 0.00, -0.00, -1.00, 260.4, 43.0)">c</text><text xml:space="preserve" font-family="Helvetica-Light" font-size="29.0" fill="#000000" transform="matrix(1.00, 0.00, -0.00, -1.00, 276.5, 43.0)">a</text><text xml:space="preserve" font-family="Helvetica-Light" font-size="29.0" fill="#000000" transform="matrix(1.00, 0.00, -0.00, -1.00, 292.6, 43.0)">n</text><text xml:space="preserve" font-family="Helvetica-Light" font-size="29.0" fill="#000000" transform="matrix(1.00, 0.00, -0.00, -1.00, 308.7, 43.0)"> </text><text xml:space="preserve" font-family="Helvetica-Light" font-size="29.0" fill="#000000" transform="matrix(1.00, 0.00, -0.00, -1.00, 316.8, 43.0)">b</text><text xml:space="preserve" font-family="Helvetica-Light" font-size="29.0" fill="#000000" transform="matrix(1.00, 0.00, -0.00, -1.00, 334.5, 43.0)">e</text><text xml:space="preserve" font-family="Helvetica-Light" font-size="29.0" fill="#000000" transform="matrix(1.00, 0.00, -0.00, -1.00, 350.6, 43.0)"> </text><text xml:space="preserve" font-family="Helvetica-Light" font-size="29.0" fill="#000000" transform="matrix(1.00, 0.00, -0.00, -1.00, 2.0, 8.0)">i</text><text xml:space="preserve" font-family="Helvetica-Light" font-size="29.0" fill="#000000" transform="matrix(1.00, 0.00, -0.00, -1.00, 8.4, 8.0)">m</text><text xml:space="preserve" font-family="Helvetica-Light" font-size="29.0" fill="#000000" transform="matrix(1.00, 0.00, -0.00, -1.00, 32.6, 8.0)">p</text><text xml:space="preserve" font-family="Helvetica-Light" font-size="29.0" fill="#000000" transform="matrix(1.00, 0.00, -0.00, -1.00, 50.3, 8.0)">l</text><text xml:space="preserve" font-family="Helvetica-Light" font-size="29.0" fill="#000000" transform="matrix(1.00, 0.00, -0.00, -1.00, 56.8, 8.0)">e</text><text xml:space="preserve" font-family="Helvetica-Light" font-size="29.0" fill="#000000" transform="matrix(1.00, 0.00, -0.00, -1.00, 72.9, 8.0)">m</text><text xml:space="preserve" font-family="Helvetica-Light" font-size="29.0" fill="#000000" transform="matrix(1.00, 0.00, -0.00, -1.00, 97.0, 8.0)">e</text><text xml:space="preserve" font-family="Helvetica-Light" font-size="29.0" fill="#000000" transform="matrix(1.00, 0.00, -0.00, -1.00, 113.2, 8.0)">n</text><text xml:space="preserve" font-family="Helvetica-Light" font-size="29.0" fill="#000000" transform="matrix(1.00, 0.00, -0.00, -1.00, 129.3, 8.0)">t</text><text xml:space="preserve" font-family="Helvetica-Light" font-size="29.0" fill="#000000" transform="matrix(1.00, 0.00, -0.00, -1.00, 137.3, 8.0)">e</text><text xml:space="preserve" font-family="Helvetica-Light" font-size="29.0" fill="#000000" transform="matrix(1.00, 0.00, -0.00, -1.00, 153.5, 8.0)">d</text><text xml:space="preserve" font-family="Helvetica-Light" font-size="29.0" fill="#000000" transform="matrix(1.00, 0.00, -0.00, -1.00, 171.2, 8.0)"> </text><text xml:space="preserve" font-family="Helvetica-Light" font-size="29.0" fill="#000000" transform="matrix(1.00, 0.00, -0.00, -1.00, 179.2, 8.0)">a</text><text xml:space="preserve" font-family="Helvetica-Light" font-size="29.0" fill="#000000" transform="matrix(1.00, 0.00, -0.00, -1.00, 195.4, 8.0)">s</text><text xml:space="preserve" font-family="Helvetica-Light" font-size="29.0" fill="#000000" transform="matrix(1.00, 0.00, -0.00, -1.00, 209.9, 8.0)"> </text><text xml:space="preserve" font-family="Helvetica-Light" font-size="29.0" fill="#000000" transform="matrix(1.00, 0.00, -0.00, -1.00, 217.9, 8.0)">c</text><text xml:space="preserve" font-family="Helvetica-Light" font-size="29.0" fill="#000000" transform="matrix(1.00, 0.00, -0.00, -1.00, 234.1, 8.0)">a</text><text xml:space="preserve" font-family="Helvetica-Light" font-size="29.0" fill="#000000" transform="matrix(1.00, 0.00, -0.00, -1.00, 250.2, 8.0)">l</text><text xml:space="preserve" font-family="Helvetica-Light" font-size="29.0" fill="#000000" transform="matrix(1.00, 0.00, -0.00, -1.00, 256.6, 8.0)">l</text><text xml:space="preserve" font-family="Helvetica-Light" font-size="29.0" fill="#000000" transform="matrix(1.00, 0.00, -0.00, -1.00, 263.1, 8.0)">o</text><text xml:space="preserve" font-family="Helvetica-Light" font-size="29.0" fill="#000000" transform="matrix(1.00, 0.00, -0.00, -1.00, 279.2, 8.0)">u</text><text xml:space="preserve" font-family="Helvetica-Light" font-size="29.0" fill="#000000" transform="matrix(1.00, 0.00, -0.00, -1.00, 295.3, 8.0)">t</text><text xml:space="preserve" font-family="Helvetica-Light" font-size="29.0" fill="#000000" transform="matrix(1.00, 0.00, -0.00, -1.00, 303.4, 8.0)">s</text></g></svg>