<?xml version="1.0" encoding="UTF-8" standalone="no"?><svg xmlns="http://www.w3.org/2000/svg" xmlns:xlink="http://www.w3.org/1999/xlink" clip-rule="evenodd" stroke-miterlimit="4.00" viewBox="0 0 1024 768"><desc>SVG generated by Keynote</desc><defs></defs><g transform="matrix(1.00, 0.00, -0.00, -1.00, 0.0, 768.0)"><path d="M 0.0 768.0 L 1024.0 768.0 L 1024.0 0.0 L 0.0 0.0 Z M 0.0 768.0 " fill="#FEFFFF"></path><text xml:space="preserve" font-family="Helvetica-Light" font-size="29.0" fill="#000000" transform="matrix(1.00, 0.00, -0.00, -1.00, 54.0, 426.0)">A</text><text xml:space="preserve" font-family="Helvetica-Light" font-size="29.0" fill="#000000" transform="matrix(1.00, 0.00, -0.00, -1.00, 73.3, 426.0)">d</text><text xml:space="preserve" font-family="Helvetica-Light" font-size="29.0" fill="#000000" transform="matrix(1.00, 0.00, -0.00, -1.00, 91.1, 426.0)">d</text><text xml:space="preserve" font-family="Helvetica-Light" font-size="29.0" fill="#000000" transform="matrix(1.00, 0.00, -0.00, -1.00, 108.8, 426.0)">i</text><text xml:space="preserve" font-family="Helvetica-Light" font-size="29.0" fill="#000000" transform="matrix(1.00, 0.00, -0.00, -1.00, 115.2, 426.0)">t</text><text xml:space="preserve" font-family="Helvetica-Light" font-size="29.0" fill="#000000" transform="matrix(1.00, 0.00, -0.00, -1.00, 123.3, 426.0)">i</text><text xml:space="preserve" font-family="Helvetica-Light" font-size="29.0" fill="#000000" transform="matrix(1.00, 0.00, -0.00, -1.00, 129.7, 426.0)">o</text><text xml:space="preserve" font-family="Helvetica-Light" font-size="29.0" fill="#000000" transform="matrix(1.00, 0.00, -0.00, -1.00, 145.8, 426.0)">n</text><text xml:space="preserve" font-family="Helvetica-Light" font-size="29.0" fill="#000000" transform="matrix(1.00, 0.00, -0.00, -1.00, 162.0, 426.0)">a</text><text xml:space="preserve" font-family="Helvetica-Light" font-size="29.0" fill="#000000" transform="matrix(1.00, 0.00, -0.00, -1.00, 178.1, 426.0)">l</text><text xml:space="preserve" font-family="Helvetica-Light" font-size="29.0" fill="#000000" transform="matrix(1.00, 0.00, -0.00, -1.00, 184.5, 426.0)"> </text><text xml:space="preserve" font-family="Helvetica-Light" font-size="29.0" fill="#000000" transform="matrix(1.00, 0.00, -0.00, -1.00, 192.6, 426.0)">i</text><text xml:space="preserve" font-family="Helvetica-Light" font-size="29.0" fill="#000000" transform="matrix(1.00, 0.00, -0.00, -1.00, 199.0, 426.0)">n</text><text xml:space="preserve" font-family="Helvetica-Light" font-size="29.0" fill="#000000" transform="matrix(1.00, 0.00, -0.00, -1.00, 215.2, 426.0)">f</text><text xml:space="preserve" font-family="Helvetica-Light" font-size="29.0" fill="#000000" transform="matrix(1.00, 0.00, -0.00, -1.00, 223.2, 426.0)">o</text><text xml:space="preserve" font-family="Helvetica-Light" font-size="29.0" fill="#000000" transform="matrix(1.00, 0.00, -0.00, -1.00, 239.3, 426.0)">r</text><text xml:space="preserve" font-family="Helvetica-Light" font-size="29.0" fill="#000000" transform="matrix(1.00, 0.00, -0.00, -1.00, 249.5, 426.0)">m</text><text xml:space="preserve" font-family="Helvetica-Light" font-size="29.0" fill="#000000" transform="matrix(1.00, 0.00, -0.00, -1.00, 273.7, 426.0)">a</text><text xml:space="preserve" font-family="Helvetica-Light" font-size="29.0" fill="#000000" transform="matrix(1.00, 0.00, -0.00, -1.00, 289.8, 426.0)">t</text><text xml:space="preserve" font-family="Helvetica-Light" font-size="29.0" fill="#000000" transform="matrix(1.00, 0.00, -0.00, -1.00, 297.9, 426.0)">i</text><text xml:space="preserve" font-family="Helvetica-Light" font-size="29.0" fill="#000000" transform="matrix(1.00, 0.00, -0.00, -1.00, 304.3, 426.0)">o</text><text xml:space="preserve" font-family="Helvetica-Light" font-size="29.0" fill="#000000" transform="matrix(1.00, 0.00, -0.00, -1.00, 320.4, 426.0)">n</text><text xml:space="preserve" font-family="Helvetica-Light" font-size="29.0" fill="#000000" transform="matrix(1.00, 0.00, -0.00, -1.00, 336.5, 426.0)"> </text><text xml:space="preserve" font-family="Helvetica-Light" font-size="29.0" fill="#000000" transform="matrix(1.00, 0.00, -0.00, -1.00, 54.0, 391.0)">b</text><text xml:space="preserve" font-family="Helvetica-Light" font-size="29.0" fill="#000000" transform="matrix(1.00, 0.00, -0.00, -1.00, 71.7, 391.0)">l</text><text xml:space="preserve" font-family="Helvetica-Light" font-size="29.0" fill="#000000" transform="matrix(1.00, 0.00, -0.00, -1.00, 78.2, 391.0)">o</text><text xml:space="preserve" font-family="Helvetica-Light" font-size="29.0" fill="#000000" transform="matrix(1.00, 0.00, -0.00, -1.00, 94.3, 391.0)">c</text><text xml:space="preserve" font-family="Helvetica-Light" font-size="29.0" fill="#000000" transform="matrix(1.00, 0.00, -0.00, -1.00, 110.4, 391.0)">k</text><text xml:space="preserve" font-family="Helvetica-Light" font-size="29.0" fill="#000000" transform="matrix(1.00, 0.00, -0.00, -1.00, 124.9, 391.0)">s</text><text xml:space="preserve" font-family="Helvetica-Light" font-size="29.0" fill="#000000" transform="matrix(1.00, 0.00, -0.00, -1.00, 139.4, 391.0)">,</text><text xml:space="preserve" font-family="Helvetica-Light" font-size="29.0" fill="#000000" transform="matrix(1.00, 0.00, -0.00, -1.00, 147.5, 391.0)"> </text><text xml:space="preserve" font-family="Helvetica-Light" font-size="29.0" fill="#000000" transform="matrix(1.00, 0.00, -0.00, -1.00, 155.5, 391.0)">c</text><text xml:space="preserve" font-family="Helvetica-Light" font-size="29.0" fill="#000000" transform="matrix(1.00, 0.00, -0.00, -1.00, 171.7, 391.0)">o</text><text xml:space="preserve" font-family="Helvetica-Light" font-size="29.0" fill="#000000" transform="matrix(1.00, 0.00, -0.00, -1.00, 187.8, 391.0)">m</text><text xml:space="preserve" font-family="Helvetica-Light" font-size="29.0" fill="#000000" transform="matrix(1.00, 0.00, -0.00, -1.00, 211.9, 391.0)">m</text><text xml:space="preserve" font-family="Helvetica-Light" font-size="29.0" fill="#000000" transform="matrix(1.00, 0.00, -0.00, -1.00, 236.1, 391.0)">e</text><text xml:space="preserve" font-family="Helvetica-Light" font-size="29.0" fill="#000000" transform="matrix(1.00, 0.00, -0.00, -1.00, 252.2, 391.0)">n</text><text xml:space="preserve" font-family="Helvetica-Light" font-size="29.0" fill="#000000" transform="matrix(1.00, 0.00, -0.00, -1.00, 268.3, 391.0)">t</text><text xml:space="preserve" font-family="Helvetica-Light" font-size="29.0" fill="#000000" transform="matrix(1.00, 0.00, -0.00, -1.00, 276.4, 391.0)">s</text><text xml:space="preserve" font-family="Helvetica-Light" font-size="29.0" fill="#000000" transform="matrix(1.00, 0.00, -0.00, -1.00, 290.9, 391.0)"> </text><text xml:space="preserve" font-family="Helvetica-Light" font-size="29.0" fill="#000000" transform="matrix(1.00, 0.00, -0.00, -1.00, 299.0, 391.0)">o</text><text xml:space="preserve" font-family="Helvetica-Light" font-size="29.0" fill="#000000" transform="matrix(1.00, 0.00, -0.00, -1.00, 315.1, 391.0)">r</text><text xml:space="preserve" font-family="Helvetica-Light" font-size="29.0" fill="#000000" transform="matrix(1.00, 0.00, -0.00, -1.00, 324.7, 391.0)"> </text><text xml:space="preserve" font-family="Helvetica-Light" font-size="29.0" fill="#000000" transform="matrix(1.00, 0.00, -0.00, -1.00, 54.0, 356.0)">g</text><text xml:space="preserve" font-family="Helvetica-Light" font-size="29.0" fill="#000000" transform="matrix(1.00, 0.00, -0.00, -1.00, 71.7, 356.0)">l</text><text xml:space="preserve" font-family="Helvetica-Light" font-size="29.0" fill="#000000" transform="matrix(1.00, 0.00, -0.00, -1.00, 78.2, 356.0)">o</text><text xml:space="preserve" font-family="Helvetica-Light" font-size="29.0" fill="#000000" transform="matrix(1.00, 0.00, -0.00, -1.00, 94.3, 356.0)">s</text><text xml:space="preserve" font-family="Helvetica-Light" font-size="29.0" fill="#000000" transform="matrix(1.00, 0.00, -0.00, -1.00, 108.8, 356.0)">s</text><text xml:space="preserve" font-family="Helvetica-Light" font-size="29.0" fill="#000000" transform="matrix(1.00, 0.00, -0.00, -1.00, 123.3, 356.0)">a</text><text xml:space="preserve" font-family="Helvetica-Light" font-size="29.0" fill="#000000" transform="matrix(1.00, 0.00, -0.00, -1.00, 139.4, 356.0)">r</text><text xml:space="preserve" font-family="Helvetica-Light" font-size="29.0" fill="#000000" transform="matrix(1.00, 0.00, -0.00, -1.00, 149.6, 356.0)">y</text><text xml:space="preserve" font-family="Helvetica-Light" font-size="29.0" fill="#000000" transform="matrix(1.00, 0.00, -0.00, -1.00, 164.1, 356.0)"> </text><text xml:space="preserve" font-family="Helvetica-Light" font-size="29.0" fill="#000000" transform="matrix(1.00, 0.00, -0.00, -1.00, 172.1, 356.0)">d</text><text xml:space="preserve" font-family="Helvetica-Light" font-size="29.0" fill="#000000" transform="matrix(1.00, 0.00, -0.00, -1.00, 189.9, 356.0)">e</text><text xml:space="preserve" font-family="Helvetica-Light" font-size="29.0" fill="#000000" transform="matrix(1.00, 0.00, -0.00, -1.00, 206.0, 356.0)">ï¬</text><text xml:space="preserve" font-family="Helvetica-Light" font-size="29.0" fill="#000000" transform="matrix(1.00, 0.00, -0.00, -1.00, 220.5, 356.0)">n</text><text xml:space="preserve" font-family="Helvetica-Light" font-size="29.0" fill="#000000" transform="matrix(1.00, 0.00, -0.00, -1.00, 236.6, 356.0)">i</text><text xml:space="preserve" font-family="Helvetica-Light" font-size="29.0" fill="#000000" transform="matrix(1.00, 0.00, -0.00, -1.00, 243.1, 356.0)">t</text><text xml:space="preserve" font-family="Helvetica-Light" font-size="29.0" fill="#000000" transform="matrix(1.00, 0.00, -0.00, -1.00, 251.1, 356.0)">i</text><text xml:space="preserve" font-family="Helvetica-Light" font-size="29.0" fill="#000000" transform="matrix(1.00, 0.00, -0.00, -1.00, 257.6, 356.0)">o</text><text xml:space="preserve" font-family="Helvetica-Light" font-size="29.0" fill="#000000" transform="matrix(1.00, 0.00, -0.00, -1.00, 273.7, 356.0)">n</text><text xml:space="preserve" font-family="Helvetica-Light" font-size="29.0" fill="#000000" transform="matrix(1.00, 0.00, -0.00, -1.00, 289.8, 356.0)">s</text><text xml:space="preserve" font-family="Helvetica-Light" font-size="29.0" fill="#000000" transform="matrix(1.00, 0.00, -0.00, -1.00, 304.3, 356.0)"> </text><text xml:space="preserve" font-family="Helvetica-Light" font-size="29.0" fill="#000000" transform="matrix(1.00, 0.00, -0.00, -1.00, 312.4, 356.0)">c</text><text xml:space="preserve" font-family="Helvetica-Light" font-size="29.0" fill="#000000" transform="matrix(1.00, 0.00, -0.00, -1.00, 328.5, 356.0)">a</text><text xml:space="preserve" font-family="Helvetica-Light" font-size="29.0" fill="#000000" transform="matrix(1.00, 0.00, -0.00, -1.00, 344.6, 356.0)">n</text><text xml:space="preserve" font-family="Helvetica-Light" font-size="29.0" fill="#000000" transform="matrix(1.00, 0.00, -0.00, -1.00, 360.7, 356.0)"> </text><text xml:space="preserve" font-family="Helvetica-Light" font-size="29.0" fill="#000000" transform="matrix(1.00, 0.00, -0.00, -1.00, 368.8, 356.0)">b</text><text xml:space="preserve" font-family="Helvetica-Light" font-size="29.0" fill="#000000" transform="matrix(1.00, 0.00, -0.00, -1.00, 386.5, 356.0)">e</text><text xml:space="preserve" font-family="Helvetica-Light" font-size="29.0" fill="#000000" transform="matrix(1.00, 0.00, -0.00, -1.00, 402.6, 356.0)"> </text><text xml:space="preserve" font-family="Helvetica-Light" font-size="29.0" fill="#000000" transform="matrix(1.00, 0.00, -0.00, -1.00, 54.0, 321.0)">i</text><text xml:space="preserve" font-family="Helvetica-Light" font-size="29.0" fill="#000000" transform="matrix(1.00, 0.00, -0.00, -1.00, 60.4, 321.0)">m</text><text xml:space="preserve" font-family="Helvetica-Light" font-size="29.0" fill="#000000" transform="matrix(1.00, 0.00, -0.00, -1.00, 84.6, 321.0)">p</text><text xml:space="preserve" font-family="Helvetica-Light" font-size="29.0" fill="#000000" transform="matrix(1.00, 0.00, -0.00, -1.00, 102.3, 321.0)">l</text><text xml:space="preserve" font-family="Helvetica-Light" font-size="29.0" fill="#000000" transform="matrix(1.00, 0.00, -0.00, -1.00, 108.8, 321.0)">e</text><text xml:space="preserve" font-family="Helvetica-Light" font-size="29.0" fill="#000000" transform="matrix(1.00, 0.00, -0.00, -1.00, 124.9, 321.0)">m</text><text xml:space="preserve" font-family="Helvetica-Light" font-size="29.0" fill="#000000" transform="matrix(1.00, 0.00, -0.00, -1.00, 149.0, 321.0)">e</text><text xml:space="preserve" font-family="Helvetica-Light" font-size="29.0" fill="#000000" transform="matrix(1.00, 0.00, -0.00, -1.00, 165.2, 321.0)">n</text><text xml:space="preserve" font-family="Helvetica-Light" font-size="29.0" fill="#000000" transform="matrix(1.00, 0.00, -0.00, -1.00, 181.3, 321.0)">t</text><text xml:space="preserve" font-family="Helvetica-Light" font-size="29.0" fill="#000000" transform="matrix(1.00, 0.00, -0.00, -1.00, 189.3, 321.0)">e</text><text xml:space="preserve" font-family="Helvetica-Light" font-size="29.0" fill="#000000" transform="matrix(1.00, 0.00, -0.00, -1.00, 205.5, 321.0)">d</text><text xml:space="preserve" font-family="Helvetica-Light" font-size="29.0" fill="#000000" transform="matrix(1.00, 0.00, -0.00, -1.00, 223.2, 321.0)"> </text><text xml:space="preserve" font-family="Helvetica-Light" font-size="29.0" fill="#000000" transform="matrix(1.00, 0.00, -0.00, -1.00, 231.2, 321.0)">a</text><text xml:space="preserve" font-family="Helvetica-Light" font-size="29.0" fill="#000000" transform="matrix(1.00, 0.00, -0.00, -1.00, 247.4, 321.0)">s</text><text xml:space="preserve" font-family="Helvetica-Light" font-size="29.0" fill="#000000" transform="matrix(1.00, 0.00, -0.00, -1.00, 261.9, 321.0)"> </text><text xml:space="preserve" font-family="Helvetica-Light" font-size="29.0" fill="#000000" transform="matrix(1.00, 0.00, -0.00, -1.00, 269.9, 321.0)">c</text><text xml:space="preserve" font-family="Helvetica-Light" font-size="29.0" fill="#000000" transform="matrix(1.00, 0.00, -0.00, -1.00, 286.1, 321.0)">a</text><text xml:space="preserve" font-family="Helvetica-Light" font-size="29.0" fill="#000000" transform="matrix(1.00, 0.00, -0.00, -1.00, 302.2, 321.0)">l</text><text xml:space="preserve" font-family="Helvetica-Light" font-size="29.0" fill="#000000" transform="matrix(1.00, 0.00, -0.00, -1.00, 308.6, 321.0)">l</text><text xml:space="preserve" font-family="Helvetica-Light" font-size="29.0" fill="#000000" transform="matrix(1.00, 0.00, -0.00, -1.00, 315.1, 321.0)">o</text><text xml:space="preserve" font-family="Helvetica-Light" font-size="29.0" fill="#000000" transform="matrix(1.00, 0.00, -0.00, -1.00, 331.2, 321.0)">u</text><text xml:space="preserve" font-family="Helvetica-Light" font-size="29.0" fill="#000000" transform="matrix(1.00, 0.00, -0.00, -1.00, 347.3, 321.0)">t</text><text xml:space="preserve" font-family="Helvetica-Light" font-size="29.0" fill="#000000" transform="matrix(1.00, 0.00, -0.00, -1.00, 355.4, 321.0)">s</text><image xlink:href="69564BF7BCBBC965A663090BFDD49C33.png" width="405.00" height="540.00" transform="matrix(1.42, 0.00, -0.00, -1.42, 449.4, 767.7)"></image><g opacity="0.50"><g><clipPath id="clip-36"><path d="M 467.0 18.0 L 561.0 18.0 L 561.0 85.0 L 467.0 85.0 Z M 467.0 18.0 "></path></clipPath><g clip-path="url(#clip-36)"><image xlink:href="../../7669BCD7-2A03-4EFB-A914-D1176A904620/assets/4B266D2F15CE8F34FCDF69A003036116.png" width="92.00" height="64.00" transform="matrix(1.00, 0.00, -0.00, -1.00, 468.0, 84.0)"></image></g></g></g><g opacity="0.49"><g><clipPath id="clip-37"><path d="M 113.0 26.0 L 433.0 26.0 L 433.0 78.0 L 113.0 78.0 Z M 113.0 26.0 "></path></clipPath><g clip-path="url(#clip-37)"><text xml:space="preserve" font-family="Helvetica-Light" font-size="36.0" fill="#000000" transform="matrix(1.00, 0.00, -0.00, -1.00, 118.0, 38.0)">P</text><text xml:space="preserve" font-family="Helvetica-Light" font-size="36.0" fill="#000000" transform="matrix(1.00, 0.00, -0.00, -1.00, 140.0, 38.0)">r</text><text xml:space="preserve" font-family="Helvetica-Light" font-size="36.0" fill="#000000" transform="matrix(1.00, 0.00, -0.00, -1.00, 151.3, 38.0)">e</text><text xml:space="preserve" font-family="Helvetica-Light" font-size="36.0" fill="#000000" transform="matrix(1.00, 0.00, -0.00, -1.00, 171.4, 38.0)">s</text><text xml:space="preserve" font-family="Helvetica-Light" font-size="36.0" fill="#000000" transform="matrix(1.00, 0.00, -0.00, -1.00, 189.4, 38.0)">s</text><text xml:space="preserve" font-family="Helvetica-Light" font-size="36.0" fill="#000000" transform="matrix(1.00, 0.00, -0.00, -1.00, 207.4, 38.0)"> </text><text xml:space="preserve" font-family="Helvetica-Light" font-size="36.0" fill="#000000" transform="matrix(1.00, 0.00, -0.00, -1.00, 217.4, 38.0)">t</text><text xml:space="preserve" font-family="Helvetica-Light" font-size="36.0" fill="#000000" transform="matrix(1.00, 0.00, -0.00, -1.00, 227.4, 38.0)">o</text><text xml:space="preserve" font-family="Helvetica-Light" font-size="36.0" fill="#000000" transform="matrix(1.00, 0.00, -0.00, -1.00, 247.4, 38.0)"> </text><text xml:space="preserve" font-family="Helvetica-Light" font-size="36.0" fill="#000000" transform="matrix(1.00, 0.00, -0.00, -1.00, 257.4, 38.0)">v</text><text xml:space="preserve" font-family="Helvetica-Light" font-size="36.0" fill="#000000" transform="matrix(1.00, 0.00, -0.00, -1.00, 275.4, 38.0)">i</text><text xml:space="preserve" font-family="Helvetica-Light" font-size="36.0" fill="#000000" transform="matrix(1.00, 0.00, -0.00, -1.00, 283.4, 38.0)">e</text><text xml:space="preserve" font-family="Helvetica-Light" font-size="36.0" fill="#000000" transform="matrix(1.00, 0.00, -0.00, -1.00, 303.4, 38.0)">w</text><text xml:space="preserve" font-family="Helvetica-Light" font-size="36.0" fill="#000000" transform="matrix(1.00, 0.00, -0.00, -1.00, 329.4, 38.0)"> </text><text xml:space="preserve" font-family="Helvetica-Light" font-size="36.0" fill="#000000" transform="matrix(1.00, 0.00, -0.00, -1.00, 339.4, 38.0)">v</text><text xml:space="preserve" font-family="Helvetica-Light" font-size="36.0" fill="#000000" transform="matrix(1.00, 0.00, -0.00, -1.00, 357.4, 38.0)">i</text><text xml:space="preserve" font-family="Helvetica-Light" font-size="36.0" fill="#000000" transform="matrix(1.00, 0.00, -0.00, -1.00, 365.4, 38.0)">d</text><text xml:space="preserve" font-family="Helvetica-Light" font-size="36.0" fill="#000000" transform="matrix(1.00, 0.00, -0.00, -1.00, 387.4, 38.0)">e</text><text xml:space="preserve" font-family="Helvetica-Light" font-size="36.0" fill="#000000" transform="matrix(1.00, 0.00, -0.00, -1.00, 407.4, 38.0)">o</text></g></g></g></g></svg>