<?xml version="1.0" encoding="UTF-8" standalone="no"?><svg xmlns="http://www.w3.org/2000/svg" xmlns:xlink="http://www.w3.org/1999/xlink" clip-rule="evenodd" stroke-miterlimit="4.00" viewBox="0 0 1024 768"><desc>SVG generated by Keynote</desc><defs></defs><g transform="matrix(1.00, 0.00, -0.00, -1.00, 0.0, 768.0)"><path d="M 0.0 768.0 L 1024.0 768.0 L 1024.0 0.0 L 0.0 0.0 Z M 0.0 768.0 " fill="#FEFFFF"></path><text xml:space="preserve" font-family="Helvetica-Light" font-size="28.0" fill="#000000" transform="matrix(1.00, 0.00, -0.00, -1.00, 614.0, 441.0)">A</text><text xml:space="preserve" font-family="Helvetica-Light" font-size="28.0" fill="#000000" transform="matrix(1.00, 0.00, -0.00, -1.00, 632.7, 441.0)">l</text><text xml:space="preserve" font-family="Helvetica-Light" font-size="28.0" fill="#000000" transform="matrix(1.00, 0.00, -0.00, -1.00, 638.9, 441.0)">t</text><text xml:space="preserve" font-family="Helvetica-Light" font-size="28.0" fill="#000000" transform="matrix(1.00, 0.00, -0.00, -1.00, 646.7, 441.0)">e</text><text xml:space="preserve" font-family="Helvetica-Light" font-size="28.0" fill="#000000" transform="matrix(1.00, 0.00, -0.00, -1.00, 662.2, 441.0)">r</text><text xml:space="preserve" font-family="Helvetica-Light" font-size="28.0" fill="#000000" transform="matrix(1.00, 0.00, -0.00, -1.00, 672.1, 441.0)">n</text><text xml:space="preserve" font-family="Helvetica-Light" font-size="28.0" fill="#000000" transform="matrix(1.00, 0.00, -0.00, -1.00, 687.6, 441.0)">a</text><text xml:space="preserve" font-family="Helvetica-Light" font-size="28.0" fill="#000000" transform="matrix(1.00, 0.00, -0.00, -1.00, 703.2, 441.0)">t</text><text xml:space="preserve" font-family="Helvetica-Light" font-size="28.0" fill="#000000" transform="matrix(1.00, 0.00, -0.00, -1.00, 711.0, 441.0)">i</text><text xml:space="preserve" font-family="Helvetica-Light" font-size="28.0" fill="#000000" transform="matrix(1.00, 0.00, -0.00, -1.00, 717.2, 441.0)">v</text><text xml:space="preserve" font-family="Helvetica-Light" font-size="28.0" fill="#000000" transform="matrix(1.00, 0.00, -0.00, -1.00, 731.2, 441.0)">e</text><text xml:space="preserve" font-family="Helvetica-Light" font-size="28.0" fill="#000000" transform="matrix(1.00, 0.00, -0.00, -1.00, 746.8, 441.0)">l</text><text xml:space="preserve" font-family="Helvetica-Light" font-size="28.0" fill="#000000" transform="matrix(1.00, 0.00, -0.00, -1.00, 753.0, 441.0)">y</text><text xml:space="preserve" font-family="Helvetica-Light" font-size="28.0" fill="#000000" transform="matrix(1.00, 0.00, -0.00, -1.00, 764.4, 441.0)">,</text><text xml:space="preserve" font-family="Helvetica-Light" font-size="28.0" fill="#000000" transform="matrix(1.00, 0.00, -0.00, -1.00, 772.2, 441.0)"> </text><text xml:space="preserve" font-family="Helvetica-Light" font-size="28.0" fill="#000000" transform="matrix(1.00, 0.00, -0.00, -1.00, 780.0, 441.0)">c</text><text xml:space="preserve" font-family="Helvetica-Light" font-size="28.0" fill="#000000" transform="matrix(1.00, 0.00, -0.00, -1.00, 795.6, 441.0)">u</text><text xml:space="preserve" font-family="Helvetica-Light" font-size="28.0" fill="#000000" transform="matrix(1.00, 0.00, -0.00, -1.00, 811.1, 441.0)">s</text><text xml:space="preserve" font-family="Helvetica-Light" font-size="28.0" fill="#000000" transform="matrix(1.00, 0.00, -0.00, -1.00, 825.1, 441.0)">t</text><text xml:space="preserve" font-family="Helvetica-Light" font-size="28.0" fill="#000000" transform="matrix(1.00, 0.00, -0.00, -1.00, 832.9, 441.0)">o</text><text xml:space="preserve" font-family="Helvetica-Light" font-size="28.0" fill="#000000" transform="matrix(1.00, 0.00, -0.00, -1.00, 848.5, 441.0)">m</text><text xml:space="preserve" font-family="Helvetica-Light" font-size="28.0" fill="#000000" transform="matrix(1.00, 0.00, -0.00, -1.00, 871.8, 441.0)">-</text><text xml:space="preserve" font-family="Helvetica-Light" font-size="28.0" fill="#000000" transform="matrix(1.00, 0.00, -0.00, -1.00, 881.1, 441.0)">t</text><text xml:space="preserve" font-family="Helvetica-Light" font-size="28.0" fill="#000000" transform="matrix(1.00, 0.00, -0.00, -1.00, 888.9, 441.0)">a</text><text xml:space="preserve" font-family="Helvetica-Light" font-size="28.0" fill="#000000" transform="matrix(1.00, 0.00, -0.00, -1.00, 904.5, 441.0)">i</text><text xml:space="preserve" font-family="Helvetica-Light" font-size="28.0" fill="#000000" transform="matrix(1.00, 0.00, -0.00, -1.00, 910.7, 441.0)">l</text><text xml:space="preserve" font-family="Helvetica-Light" font-size="28.0" fill="#000000" transform="matrix(1.00, 0.00, -0.00, -1.00, 916.9, 441.0)">o</text><text xml:space="preserve" font-family="Helvetica-Light" font-size="28.0" fill="#000000" transform="matrix(1.00, 0.00, -0.00, -1.00, 932.5, 441.0)">r</text><text xml:space="preserve" font-family="Helvetica-Light" font-size="28.0" fill="#000000" transform="matrix(1.00, 0.00, -0.00, -1.00, 941.3, 441.0)">e</text><text xml:space="preserve" font-family="Helvetica-Light" font-size="28.0" fill="#000000" transform="matrix(1.00, 0.00, -0.00, -1.00, 956.9, 441.0)">d</text><text xml:space="preserve" font-family="Helvetica-Light" font-size="28.0" fill="#000000" transform="matrix(1.00, 0.00, -0.00, -1.00, 974.0, 441.0)"> </text><text xml:space="preserve" font-family="Helvetica-Light" font-size="28.0" fill="#000000" transform="matrix(1.00, 0.00, -0.00, -1.00, 614.0, 407.0)">a</text><text xml:space="preserve" font-family="Helvetica-Light" font-size="28.0" fill="#000000" transform="matrix(1.00, 0.00, -0.00, -1.00, 629.6, 407.0)">n</text><text xml:space="preserve" font-family="Helvetica-Light" font-size="28.0" fill="#000000" transform="matrix(1.00, 0.00, -0.00, -1.00, 645.1, 407.0)">i</text><text xml:space="preserve" font-family="Helvetica-Light" font-size="28.0" fill="#000000" transform="matrix(1.00, 0.00, -0.00, -1.00, 651.4, 407.0)">m</text><text xml:space="preserve" font-family="Helvetica-Light" font-size="28.0" fill="#000000" transform="matrix(1.00, 0.00, -0.00, -1.00, 674.7, 407.0)">a</text><text xml:space="preserve" font-family="Helvetica-Light" font-size="28.0" fill="#000000" transform="matrix(1.00, 0.00, -0.00, -1.00, 690.2, 407.0)">t</text><text xml:space="preserve" font-family="Helvetica-Light" font-size="28.0" fill="#000000" transform="matrix(1.00, 0.00, -0.00, -1.00, 698.0, 407.0)">i</text><text xml:space="preserve" font-family="Helvetica-Light" font-size="28.0" fill="#000000" transform="matrix(1.00, 0.00, -0.00, -1.00, 704.2, 407.0)">o</text><text xml:space="preserve" font-family="Helvetica-Light" font-size="28.0" fill="#000000" transform="matrix(1.00, 0.00, -0.00, -1.00, 719.8, 407.0)">n</text><text xml:space="preserve" font-family="Helvetica-Light" font-size="28.0" fill="#000000" transform="matrix(1.00, 0.00, -0.00, -1.00, 735.4, 407.0)">s</text><text xml:space="preserve" font-family="Helvetica-Light" font-size="28.0" fill="#000000" transform="matrix(1.00, 0.00, -0.00, -1.00, 749.4, 407.0)"> </text><text xml:space="preserve" font-family="Helvetica-Light" font-size="28.0" fill="#000000" transform="matrix(1.00, 0.00, -0.00, -1.00, 757.2, 407.0)">c</text><text xml:space="preserve" font-family="Helvetica-Light" font-size="28.0" fill="#000000" transform="matrix(1.00, 0.00, -0.00, -1.00, 772.7, 407.0)">a</text><text xml:space="preserve" font-family="Helvetica-Light" font-size="28.0" fill="#000000" transform="matrix(1.00, 0.00, -0.00, -1.00, 788.3, 407.0)">n</text><text xml:space="preserve" font-family="Helvetica-Light" font-size="28.0" fill="#000000" transform="matrix(1.00, 0.00, -0.00, -1.00, 803.9, 407.0)"> </text><text xml:space="preserve" font-family="Helvetica-Light" font-size="28.0" fill="#000000" transform="matrix(1.00, 0.00, -0.00, -1.00, 811.7, 407.0)">b</text><text xml:space="preserve" font-family="Helvetica-Light" font-size="28.0" fill="#000000" transform="matrix(1.00, 0.00, -0.00, -1.00, 828.8, 407.0)">e</text><text xml:space="preserve" font-family="Helvetica-Light" font-size="28.0" fill="#000000" transform="matrix(1.00, 0.00, -0.00, -1.00, 844.3, 407.0)"> </text><text xml:space="preserve" font-family="Helvetica-Light" font-size="28.0" fill="#000000" transform="matrix(1.00, 0.00, -0.00, -1.00, 852.1, 407.0)">u</text><text xml:space="preserve" font-family="Helvetica-Light" font-size="28.0" fill="#000000" transform="matrix(1.00, 0.00, -0.00, -1.00, 867.7, 407.0)">s</text><text xml:space="preserve" font-family="Helvetica-Light" font-size="28.0" fill="#000000" transform="matrix(1.00, 0.00, -0.00, -1.00, 881.7, 407.0)">e</text><text xml:space="preserve" font-family="Helvetica-Light" font-size="28.0" fill="#000000" transform="matrix(1.00, 0.00, -0.00, -1.00, 897.2, 407.0)">d</text><text xml:space="preserve" font-family="Helvetica-Light" font-size="28.0" fill="#000000" transform="matrix(1.00, 0.00, -0.00, -1.00, 914.4, 407.0)"> </text><text xml:space="preserve" font-family="Helvetica-Light" font-size="28.0" fill="#000000" transform="matrix(1.00, 0.00, -0.00, -1.00, 922.1, 407.0)">f</text><text xml:space="preserve" font-family="Helvetica-Light" font-size="28.0" fill="#000000" transform="matrix(1.00, 0.00, -0.00, -1.00, 929.9, 407.0)">o</text><text xml:space="preserve" font-family="Helvetica-Light" font-size="28.0" fill="#000000" transform="matrix(1.00, 0.00, -0.00, -1.00, 945.5, 407.0)">r</text><text xml:space="preserve" font-family="Helvetica-Light" font-size="28.0" fill="#000000" transform="matrix(1.00, 0.00, -0.00, -1.00, 954.8, 407.0)"> </text><text xml:space="preserve" font-family="Helvetica-Light" font-size="28.0" fill="#000000" transform="matrix(1.00, 0.00, -0.00, -1.00, 614.0, 373.0)">g</text><text xml:space="preserve" font-family="Helvetica-Light" font-size="28.0" fill="#000000" transform="matrix(1.00, 0.00, -0.00, -1.00, 631.1, 373.0)">u</text><text xml:space="preserve" font-family="Helvetica-Light" font-size="28.0" fill="#000000" transform="matrix(1.00, 0.00, -0.00, -1.00, 646.7, 373.0)">i</text><text xml:space="preserve" font-family="Helvetica-Light" font-size="28.0" fill="#000000" transform="matrix(1.00, 0.00, -0.00, -1.00, 652.9, 373.0)">d</text><text xml:space="preserve" font-family="Helvetica-Light" font-size="28.0" fill="#000000" transform="matrix(1.00, 0.00, -0.00, -1.00, 670.0, 373.0)">i</text><text xml:space="preserve" font-family="Helvetica-Light" font-size="28.0" fill="#000000" transform="matrix(1.00, 0.00, -0.00, -1.00, 676.2, 373.0)">n</text><text xml:space="preserve" font-family="Helvetica-Light" font-size="28.0" fill="#000000" transform="matrix(1.00, 0.00, -0.00, -1.00, 691.8, 373.0)">g</text><text xml:space="preserve" font-family="Helvetica-Light" font-size="28.0" fill="#000000" transform="matrix(1.00, 0.00, -0.00, -1.00, 708.9, 373.0)"> </text><text xml:space="preserve" font-family="Helvetica-Light" font-size="28.0" fill="#000000" transform="matrix(1.00, 0.00, -0.00, -1.00, 716.7, 373.0)">t</text><text xml:space="preserve" font-family="Helvetica-Light" font-size="28.0" fill="#000000" transform="matrix(1.00, 0.00, -0.00, -1.00, 724.5, 373.0)">h</text><text xml:space="preserve" font-family="Helvetica-Light" font-size="28.0" fill="#000000" transform="matrix(1.00, 0.00, -0.00, -1.00, 740.0, 373.0)">e</text><text xml:space="preserve" font-family="Helvetica-Light" font-size="28.0" fill="#000000" transform="matrix(1.00, 0.00, -0.00, -1.00, 755.6, 373.0)"> </text><text xml:space="preserve" font-family="Helvetica-Light" font-size="28.0" fill="#000000" transform="matrix(1.00, 0.00, -0.00, -1.00, 763.4, 373.0)">u</text><text xml:space="preserve" font-family="Helvetica-Light" font-size="28.0" fill="#000000" transform="matrix(1.00, 0.00, -0.00, -1.00, 778.9, 373.0)">s</text><text xml:space="preserve" font-family="Helvetica-Light" font-size="28.0" fill="#000000" transform="matrix(1.00, 0.00, -0.00, -1.00, 792.9, 373.0)">e</text><text xml:space="preserve" font-family="Helvetica-Light" font-size="28.0" fill="#000000" transform="matrix(1.00, 0.00, -0.00, -1.00, 808.5, 373.0)">r</text><text xml:space="preserve" font-family="Helvetica-Light" font-size="28.0" fill="#000000" transform="matrix(1.00, 0.00, -0.00, -1.00, 817.8, 373.0)"> </text><text xml:space="preserve" font-family="Helvetica-Light" font-size="28.0" fill="#000000" transform="matrix(1.00, 0.00, -0.00, -1.00, 825.6, 373.0)">t</text><text xml:space="preserve" font-family="Helvetica-Light" font-size="28.0" fill="#000000" transform="matrix(1.00, 0.00, -0.00, -1.00, 833.4, 373.0)">h</text><text xml:space="preserve" font-family="Helvetica-Light" font-size="28.0" fill="#000000" transform="matrix(1.00, 0.00, -0.00, -1.00, 849.0, 373.0)">r</text><text xml:space="preserve" font-family="Helvetica-Light" font-size="28.0" fill="#000000" transform="matrix(1.00, 0.00, -0.00, -1.00, 857.8, 373.0)">o</text><text xml:space="preserve" font-family="Helvetica-Light" font-size="28.0" fill="#000000" transform="matrix(1.00, 0.00, -0.00, -1.00, 873.4, 373.0)">u</text><text xml:space="preserve" font-family="Helvetica-Light" font-size="28.0" fill="#000000" transform="matrix(1.00, 0.00, -0.00, -1.00, 888.9, 373.0)">g</text><text xml:space="preserve" font-family="Helvetica-Light" font-size="28.0" fill="#000000" transform="matrix(1.00, 0.00, -0.00, -1.00, 906.0, 373.0)">h</text><text xml:space="preserve" font-family="Helvetica-Light" font-size="28.0" fill="#000000" transform="matrix(1.00, 0.00, -0.00, -1.00, 921.6, 373.0)"> </text><text xml:space="preserve" font-family="Helvetica-Light" font-size="28.0" fill="#000000" transform="matrix(1.00, 0.00, -0.00, -1.00, 929.4, 373.0)">t</text><text xml:space="preserve" font-family="Helvetica-Light" font-size="28.0" fill="#000000" transform="matrix(1.00, 0.00, -0.00, -1.00, 937.2, 373.0)">h</text><text xml:space="preserve" font-family="Helvetica-Light" font-size="28.0" fill="#000000" transform="matrix(1.00, 0.00, -0.00, -1.00, 952.7, 373.0)">e</text><text xml:space="preserve" font-family="Helvetica-Light" font-size="28.0" fill="#000000" transform="matrix(1.00, 0.00, -0.00, -1.00, 968.3, 373.0)"> </text><text xml:space="preserve" font-family="Helvetica-Light" font-size="28.0" fill="#000000" transform="matrix(1.00, 0.00, -0.00, -1.00, 614.0, 339.0)">s</text><text xml:space="preserve" font-family="Helvetica-Light" font-size="28.0" fill="#000000" transform="matrix(1.00, 0.00, -0.00, -1.00, 628.0, 339.0)">t</text><text xml:space="preserve" font-family="Helvetica-Light" font-size="28.0" fill="#000000" transform="matrix(1.00, 0.00, -0.00, -1.00, 635.8, 339.0)">e</text><text xml:space="preserve" font-family="Helvetica-Light" font-size="28.0" fill="#000000" transform="matrix(1.00, 0.00, -0.00, -1.00, 651.4, 339.0)">p</text><text xml:space="preserve" font-family="Helvetica-Light" font-size="28.0" fill="#000000" transform="matrix(1.00, 0.00, -0.00, -1.00, 668.5, 339.0)">-</text><text xml:space="preserve" font-family="Helvetica-Light" font-size="28.0" fill="#000000" transform="matrix(1.00, 0.00, -0.00, -1.00, 677.8, 339.0)">b</text><text xml:space="preserve" font-family="Helvetica-Light" font-size="28.0" fill="#000000" transform="matrix(1.00, 0.00, -0.00, -1.00, 694.9, 339.0)">y</text><text xml:space="preserve" font-family="Helvetica-Light" font-size="28.0" fill="#000000" transform="matrix(1.00, 0.00, -0.00, -1.00, 708.9, 339.0)">-</text><text xml:space="preserve" font-family="Helvetica-Light" font-size="28.0" fill="#000000" transform="matrix(1.00, 0.00, -0.00, -1.00, 718.2, 339.0)">s</text><text xml:space="preserve" font-family="Helvetica-Light" font-size="28.0" fill="#000000" transform="matrix(1.00, 0.00, -0.00, -1.00, 732.2, 339.0)">t</text><text xml:space="preserve" font-family="Helvetica-Light" font-size="28.0" fill="#000000" transform="matrix(1.00, 0.00, -0.00, -1.00, 740.0, 339.0)">e</text><text xml:space="preserve" font-family="Helvetica-Light" font-size="28.0" fill="#000000" transform="matrix(1.00, 0.00, -0.00, -1.00, 755.6, 339.0)">p</text><text xml:space="preserve" font-family="Helvetica-Light" font-size="28.0" fill="#000000" transform="matrix(1.00, 0.00, -0.00, -1.00, 772.7, 339.0)"> </text><text xml:space="preserve" font-family="Helvetica-Light" font-size="28.0" fill="#000000" transform="matrix(1.00, 0.00, -0.00, -1.00, 780.5, 339.0)">p</text><text xml:space="preserve" font-family="Helvetica-Light" font-size="28.0" fill="#000000" transform="matrix(1.00, 0.00, -0.00, -1.00, 797.6, 339.0)">r</text><text xml:space="preserve" font-family="Helvetica-Light" font-size="28.0" fill="#000000" transform="matrix(1.00, 0.00, -0.00, -1.00, 806.4, 339.0)">o</text><text xml:space="preserve" font-family="Helvetica-Light" font-size="28.0" fill="#000000" transform="matrix(1.00, 0.00, -0.00, -1.00, 822.0, 339.0)">c</text><text xml:space="preserve" font-family="Helvetica-Light" font-size="28.0" fill="#000000" transform="matrix(1.00, 0.00, -0.00, -1.00, 837.5, 339.0)">e</text><text xml:space="preserve" font-family="Helvetica-Light" font-size="28.0" fill="#000000" transform="matrix(1.00, 0.00, -0.00, -1.00, 853.1, 339.0)">s</text><text xml:space="preserve" font-family="Helvetica-Light" font-size="28.0" fill="#000000" transform="matrix(1.00, 0.00, -0.00, -1.00, 867.1, 339.0)">s</text><text xml:space="preserve" font-family="Helvetica-Light" font-size="28.0" fill="#000000" transform="matrix(1.00, 0.00, -0.00, -1.00, 881.1, 339.0)"> </text><text xml:space="preserve" font-family="Helvetica-Light" font-size="28.0" fill="#000000" transform="matrix(1.00, 0.00, -0.00, -1.00, 614.0, 305.0)">d</text><text xml:space="preserve" font-family="Helvetica-Light" font-size="28.0" fill="#000000" transform="matrix(1.00, 0.00, -0.00, -1.00, 631.1, 305.0)">i</text><text xml:space="preserve" font-family="Helvetica-Light" font-size="28.0" fill="#000000" transform="matrix(1.00, 0.00, -0.00, -1.00, 637.3, 305.0)">a</text><text xml:space="preserve" font-family="Helvetica-Light" font-size="28.0" fill="#000000" transform="matrix(1.00, 0.00, -0.00, -1.00, 652.9, 305.0)">g</text><text xml:space="preserve" font-family="Helvetica-Light" font-size="28.0" fill="#000000" transform="matrix(1.00, 0.00, -0.00, -1.00, 670.0, 305.0)">r</text><text xml:space="preserve" font-family="Helvetica-Light" font-size="28.0" fill="#000000" transform="matrix(1.00, 0.00, -0.00, -1.00, 679.3, 305.0)">a</text><text xml:space="preserve" font-family="Helvetica-Light" font-size="28.0" fill="#000000" transform="matrix(1.00, 0.00, -0.00, -1.00, 694.9, 305.0)">m</text><text xml:space="preserve" font-family="Helvetica-Light" font-size="28.0" fill="#000000" transform="matrix(1.00, 0.00, -0.00, -1.00, 718.2, 305.0)">s</text><text xml:space="preserve" font-family="Helvetica-Light" font-size="28.0" fill="#000000" transform="matrix(1.00, 0.00, -0.00, -1.00, 732.2, 305.0)"> </text><text xml:space="preserve" font-family="Helvetica-Light" font-size="28.0" fill="#000000" transform="matrix(1.00, 0.00, -0.00, -1.00, 740.0, 305.0)">a</text><text xml:space="preserve" font-family="Helvetica-Light" font-size="28.0" fill="#000000" transform="matrix(1.00, 0.00, -0.00, -1.00, 755.6, 305.0)">n</text><text xml:space="preserve" font-family="Helvetica-Light" font-size="28.0" fill="#000000" transform="matrix(1.00, 0.00, -0.00, -1.00, 771.1, 305.0)">d</text><text xml:space="preserve" font-family="Helvetica-Light" font-size="28.0" fill="#000000" transform="matrix(1.00, 0.00, -0.00, -1.00, 788.2, 305.0)"> </text><text xml:space="preserve" font-family="Helvetica-Light" font-size="28.0" fill="#000000" transform="matrix(1.00, 0.00, -0.00, -1.00, 796.0, 305.0)">s</text><text xml:space="preserve" font-family="Helvetica-Light" font-size="28.0" fill="#000000" transform="matrix(1.00, 0.00, -0.00, -1.00, 810.0, 305.0)">c</text><text xml:space="preserve" font-family="Helvetica-Light" font-size="28.0" fill="#000000" transform="matrix(1.00, 0.00, -0.00, -1.00, 825.6, 305.0)">h</text><text xml:space="preserve" font-family="Helvetica-Light" font-size="28.0" fill="#000000" transform="matrix(1.00, 0.00, -0.00, -1.00, 841.2, 305.0)">e</text><text xml:space="preserve" font-family="Helvetica-Light" font-size="28.0" fill="#000000" transform="matrix(1.00, 0.00, -0.00, -1.00, 856.7, 305.0)">m</text><text xml:space="preserve" font-family="Helvetica-Light" font-size="28.0" fill="#000000" transform="matrix(1.00, 0.00, -0.00, -1.00, 880.1, 305.0)">e</text><text xml:space="preserve" font-family="Helvetica-Light" font-size="28.0" fill="#000000" transform="matrix(1.00, 0.00, -0.00, -1.00, 895.6, 305.0)">s</text><image xlink:href="58E01577831245267B2B157EAD1E00E3.png" width="540.00" height="720.00" transform="matrix(1.07, 0.00, -0.00, -1.07, -0.5, 767.7)"></image><g opacity="0.50"><g><clipPath id="clip-34"><path d="M 467.0 18.0 L 561.0 18.0 L 561.0 85.0 L 467.0 85.0 Z M 467.0 18.0 "></path></clipPath><g clip-path="url(#clip-34)"><image xlink:href="../../7669BCD7-2A03-4EFB-A914-D1176A904620/assets/4B266D2F15CE8F34FCDF69A003036116.png" width="92.00" height="64.00" transform="matrix(1.00, 0.00, -0.00, -1.00, 468.0, 84.0)"></image></g></g></g><g opacity="0.49"><g><clipPath id="clip-35"><path d="M 586.0 26.0 L 905.0 26.0 L 905.0 78.0 L 586.0 78.0 Z M 586.0 26.0 "></path></clipPath><g clip-path="url(#clip-35)"><text xml:space="preserve" font-family="Helvetica-Light" font-size="36.0" fill="#000000" transform="matrix(1.00, 0.00, -0.00, -1.00, 591.0, 38.0)">P</text><text xml:space="preserve" font-family="Helvetica-Light" font-size="36.0" fill="#000000" transform="matrix(1.00, 0.00, -0.00, -1.00, 613.0, 38.0)">r</text><text xml:space="preserve" font-family="Helvetica-Light" font-size="36.0" fill="#000000" transform="matrix(1.00, 0.00, -0.00, -1.00, 624.3, 38.0)">e</text><text xml:space="preserve" font-family="Helvetica-Light" font-size="36.0" fill="#000000" transform="matrix(1.00, 0.00, -0.00, -1.00, 644.4, 38.0)">s</text><text xml:space="preserve" font-family="Helvetica-Light" font-size="36.0" fill="#000000" transform="matrix(1.00, 0.00, -0.00, -1.00, 662.4, 38.0)">s</text><text xml:space="preserve" font-family="Helvetica-Light" font-size="36.0" fill="#000000" transform="matrix(1.00, 0.00, -0.00, -1.00, 680.4, 38.0)"> </text><text xml:space="preserve" font-family="Helvetica-Light" font-size="36.0" fill="#000000" transform="matrix(1.00, 0.00, -0.00, -1.00, 690.4, 38.0)">t</text><text xml:space="preserve" font-family="Helvetica-Light" font-size="36.0" fill="#000000" transform="matrix(1.00, 0.00, -0.00, -1.00, 700.4, 38.0)">o</text><text xml:space="preserve" font-family="Helvetica-Light" font-size="36.0" fill="#000000" transform="matrix(1.00, 0.00, -0.00, -1.00, 720.4, 38.0)"> </text><text xml:space="preserve" font-family="Helvetica-Light" font-size="36.0" fill="#000000" transform="matrix(1.00, 0.00, -0.00, -1.00, 730.4, 38.0)">v</text><text xml:space="preserve" font-family="Helvetica-Light" font-size="36.0" fill="#000000" transform="matrix(1.00, 0.00, -0.00, -1.00, 748.4, 38.0)">i</text><text xml:space="preserve" font-family="Helvetica-Light" font-size="36.0" fill="#000000" transform="matrix(1.00, 0.00, -0.00, -1.00, 756.4, 38.0)">e</text><text xml:space="preserve" font-family="Helvetica-Light" font-size="36.0" fill="#000000" transform="matrix(1.00, 0.00, -0.00, -1.00, 776.4, 38.0)">w</text><text xml:space="preserve" font-family="Helvetica-Light" font-size="36.0" fill="#000000" transform="matrix(1.00, 0.00, -0.00, -1.00, 802.4, 38.0)"> </text><text xml:space="preserve" font-family="Helvetica-Light" font-size="36.0" fill="#000000" transform="matrix(1.00, 0.00, -0.00, -1.00, 812.4, 38.0)">v</text><text xml:space="preserve" font-family="Helvetica-Light" font-size="36.0" fill="#000000" transform="matrix(1.00, 0.00, -0.00, -1.00, 830.4, 38.0)">i</text><text xml:space="preserve" font-family="Helvetica-Light" font-size="36.0" fill="#000000" transform="matrix(1.00, 0.00, -0.00, -1.00, 838.4, 38.0)">d</text><text xml:space="preserve" font-family="Helvetica-Light" font-size="36.0" fill="#000000" transform="matrix(1.00, 0.00, -0.00, -1.00, 860.4, 38.0)">e</text><text xml:space="preserve" font-family="Helvetica-Light" font-size="36.0" fill="#000000" transform="matrix(1.00, 0.00, -0.00, -1.00, 880.4, 38.0)">o</text></g></g></g></g></svg>