<?xml version="1.0" encoding="UTF-8" standalone="no"?><svg xmlns="http://www.w3.org/2000/svg" xmlns:xlink="http://www.w3.org/1999/xlink" clip-rule="evenodd" stroke-miterlimit="4.00" viewBox="0 0 1024 768"><desc>SVG generated by Keynote</desc><defs></defs><g transform="matrix(1.00, 0.00, -0.00, -1.00, 0.0, 768.0)"><path d="M 0.0 768.0 L 1024.0 768.0 L 1024.0 0.0 L 0.0 0.0 Z M 0.0 768.0 " fill="#FEFFFF"></path><text xml:space="preserve" font-family="Helvetica-Light" font-size="77.6" fill="#000000" transform="matrix(1.00, 0.00, -0.00, -1.00, 210.0, 495.0)">M</text><text xml:space="preserve" font-family="Helvetica-Light" font-size="77.6" fill="#000000" transform="matrix(1.00, 0.00, -0.00, -1.00, 274.6, 495.0)">o</text><text xml:space="preserve" font-family="Helvetica-Light" font-size="77.6" fill="#000000" transform="matrix(1.00, 0.00, -0.00, -1.00, 317.8, 495.0)">b</text><text xml:space="preserve" font-family="Helvetica-Light" font-size="77.6" fill="#000000" transform="matrix(1.00, 0.00, -0.00, -1.00, 365.2, 495.0)">i</text><text xml:space="preserve" font-family="Helvetica-Light" font-size="77.6" fill="#000000" transform="matrix(1.00, 0.00, -0.00, -1.00, 382.4, 495.0)">l</text><text xml:space="preserve" font-family="Helvetica-Light" font-size="77.6" fill="#000000" transform="matrix(1.00, 0.00, -0.00, -1.00, 399.7, 495.0)">e</text><text xml:space="preserve" font-family="Helvetica-Light" font-size="77.6" fill="#000000" transform="matrix(1.00, 0.00, -0.00, -1.00, 442.8, 495.0)"> </text><text xml:space="preserve" font-family="Helvetica-Light" font-size="77.6" fill="#000000" transform="matrix(1.00, 0.00, -0.00, -1.00, 464.4, 495.0)">a</text><text xml:space="preserve" font-family="Helvetica-Light" font-size="77.6" fill="#000000" transform="matrix(1.00, 0.00, -0.00, -1.00, 507.5, 495.0)">p</text><text xml:space="preserve" font-family="Helvetica-Light" font-size="77.6" fill="#000000" transform="matrix(1.00, 0.00, -0.00, -1.00, 554.9, 495.0)">p</text><text xml:space="preserve" font-family="Helvetica-Light" font-size="77.6" fill="#000000" transform="matrix(1.00, 0.00, -0.00, -1.00, 602.3, 495.0)"> </text><text xml:space="preserve" font-family="Helvetica-Light" font-size="77.6" fill="#000000" transform="matrix(1.00, 0.00, -0.00, -1.00, 623.9, 495.0)">a</text><text xml:space="preserve" font-family="Helvetica-Light" font-size="77.6" fill="#000000" transform="matrix(1.00, 0.00, -0.00, -1.00, 667.1, 495.0)">s</text><text xml:space="preserve" font-family="Helvetica-Light" font-size="77.6" fill="#000000" transform="matrix(1.00, 0.00, -0.00, -1.00, 705.9, 495.0)"> </text><text xml:space="preserve" font-family="Helvetica-Light" font-size="77.6" fill="#000000" transform="matrix(1.00, 0.00, -0.00, -1.00, 727.4, 495.0)">a</text><text xml:space="preserve" font-family="Helvetica-Light" font-size="77.6" fill="#000000" transform="matrix(1.00, 0.00, -0.00, -1.00, 770.6, 495.0)">n</text><text xml:space="preserve" font-family="Helvetica-Light" font-size="77.6" fill="#000000" transform="matrix(1.00, 0.00, -0.00, -1.00, 813.7, 495.0)"> </text><text xml:space="preserve" font-family="Helvetica-Light" font-size="77.6" fill="#000000" transform="matrix(1.00, 0.00, -0.00, -1.00, 107.0, 401.0)">i</text><text xml:space="preserve" font-family="Helvetica-Light" font-size="77.6" fill="#000000" transform="matrix(1.00, 0.00, -0.00, -1.00, 124.2, 401.0)">n</text><text xml:space="preserve" font-family="Helvetica-Light" font-size="77.6" fill="#000000" transform="matrix(1.00, 0.00, -0.00, -1.00, 167.4, 401.0)">t</text><text xml:space="preserve" font-family="Helvetica-Light" font-size="77.6" fill="#000000" transform="matrix(1.00, 0.00, -0.00, -1.00, 188.9, 401.0)">e</text><text xml:space="preserve" font-family="Helvetica-Light" font-size="77.6" fill="#000000" transform="matrix(1.00, 0.00, -0.00, -1.00, 232.1, 401.0)">r</text><text xml:space="preserve" font-family="Helvetica-Light" font-size="77.6" fill="#000000" transform="matrix(1.00, 0.00, -0.00, -1.00, 257.9, 401.0)">a</text><text xml:space="preserve" font-family="Helvetica-Light" font-size="77.6" fill="#000000" transform="matrix(1.00, 0.00, -0.00, -1.00, 301.1, 401.0)">c</text><text xml:space="preserve" font-family="Helvetica-Light" font-size="77.6" fill="#000000" transform="matrix(1.00, 0.00, -0.00, -1.00, 344.2, 401.0)">t</text><text xml:space="preserve" font-family="Helvetica-Light" font-size="77.6" fill="#000000" transform="matrix(1.00, 0.00, -0.00, -1.00, 365.8, 401.0)">i</text><text xml:space="preserve" font-family="Helvetica-Light" font-size="77.6" fill="#000000" transform="matrix(1.00, 0.00, -0.00, -1.00, 383.0, 401.0)">v</text><text xml:space="preserve" font-family="Helvetica-Light" font-size="77.6" fill="#000000" transform="matrix(1.00, 0.00, -0.00, -1.00, 421.8, 401.0)">e</text><text xml:space="preserve" font-family="Helvetica-Light" font-size="77.6" fill="#000000" transform="matrix(1.00, 0.00, -0.00, -1.00, 465.0, 401.0)"> </text><text xml:space="preserve" font-family="Helvetica-Light" font-size="77.6" fill="#000000" transform="matrix(1.00, 0.00, -0.00, -1.00, 486.5, 401.0)">p</text><text xml:space="preserve" font-family="Helvetica-Light" font-size="77.6" fill="#000000" transform="matrix(1.00, 0.00, -0.00, -1.00, 534.0, 401.0)">r</text><text xml:space="preserve" font-family="Helvetica-Light" font-size="77.6" fill="#000000" transform="matrix(1.00, 0.00, -0.00, -1.00, 558.4, 401.0)">e</text><text xml:space="preserve" font-family="Helvetica-Light" font-size="77.6" fill="#000000" transform="matrix(1.00, 0.00, -0.00, -1.00, 601.5, 401.0)">s</text><text xml:space="preserve" font-family="Helvetica-Light" font-size="77.6" fill="#000000" transform="matrix(1.00, 0.00, -0.00, -1.00, 640.3, 401.0)">e</text><text xml:space="preserve" font-family="Helvetica-Light" font-size="77.6" fill="#000000" transform="matrix(1.00, 0.00, -0.00, -1.00, 683.5, 401.0)">n</text><text xml:space="preserve" font-family="Helvetica-Light" font-size="77.6" fill="#000000" transform="matrix(1.00, 0.00, -0.00, -1.00, 726.6, 401.0)">t</text><text xml:space="preserve" font-family="Helvetica-Light" font-size="77.6" fill="#000000" transform="matrix(1.00, 0.00, -0.00, -1.00, 748.2, 401.0)">a</text><text xml:space="preserve" font-family="Helvetica-Light" font-size="77.6" fill="#000000" transform="matrix(1.00, 0.00, -0.00, -1.00, 791.4, 401.0)">t</text><text xml:space="preserve" font-family="Helvetica-Light" font-size="77.6" fill="#000000" transform="matrix(1.00, 0.00, -0.00, -1.00, 812.9, 401.0)">i</text><text xml:space="preserve" font-family="Helvetica-Light" font-size="77.6" fill="#000000" transform="matrix(1.00, 0.00, -0.00, -1.00, 830.2, 401.0)">o</text><text xml:space="preserve" font-family="Helvetica-Light" font-size="77.6" fill="#000000" transform="matrix(1.00, 0.00, -0.00, -1.00, 873.3, 401.0)">n</text></g></svg>